<?xml version="1.0" standalone="no"?>
<!DOCTYPE svg PUBLIC "-//W3C//DTD SVG 20010904//EN"
 "http://www.w3.org/TR/2001/REC-SVG-20010904/DTD/svg10.dtd">
<svg version="1.0" xmlns="http://www.w3.org/2000/svg"
 width="1280.000000pt" height="937.000000pt" viewBox="0 0 1280.000000 937.000000"
 preserveAspectRatio="xMidYMid meet">
<metadata>
Created by potrace 1.15, written by Peter Selinger 2001-2017
</metadata>
<g transform="translate(0.000000,937.000000) scale(0.100000,-0.100000)"
fill="#000000" stroke="none">
<path d="M11645 9330 c-71 -21 -479 -137 -905 -259 -426 -121 -1054 -299
-1395 -396 l-620 -177 -200 28 c-172 23 -204 30 -228 50 -32 27 -73 31 -103
10 -17 -12 -47 -12 -224 4 -800 73 -1254 101 -1905 121 -209 6 -519 9 -690 6
l-309 -5 -23 24 c-17 19 -32 24 -67 24 -39 0 -49 -4 -68 -30 -21 -29 -24 -30
-102 -30 -99 0 -495 -24 -746 -45 -641 -55 -1291 -155 -1749 -270 -52 -13 -98
-22 -103 -19 -4 3 -8 13 -8 22 0 10 -7 28 -16 40 -24 35 -120 27 -146 -12 -4
-6 -8 -32 -8 -58 l0 -47 -58 -16 c-498 -139 -787 -278 -977 -470 -113 -113
-185 -256 -185 -367 0 -42 -9 -48 -28 -18 -7 11 -19 20 -26 20 -11 0 -16 26
-21 111 -5 74 -12 115 -22 125 -9 9 -35 14 -73 14 -51 0 -61 -3 -79 -26 -18
-23 -21 -41 -21 -120 0 -84 -2 -93 -20 -99 -19 -6 -23 -14 -34 -80 -3 -16 -13
-64 -23 -105 -9 -41 -17 -111 -17 -155 1 -77 3 -85 62 -213 56 -119 62 -139
62 -197 0 -36 -5 -74 -12 -84 -22 -35 -4 -51 57 -51 54 0 56 -1 71 -35 7 -19
14 -37 14 -41 0 -4 -25 -4 -55 -2 -38 3 -62 11 -78 26 -15 14 -36 22 -59 22
-53 0 -91 -48 -109 -136 -21 -105 -16 -400 9 -542 18 -102 24 -117 61 -165 56
-74 167 -179 221 -209 63 -37 137 -56 239 -64 l88 -7 6 -210 c4 -116 7 -299 7
-407 l0 -197 -31 -7 c-17 -3 -46 -6 -63 -6 -118 -1 -267 -63 -362 -152 -101
-95 -162 -240 -180 -424 l-6 -71 -69 -5 c-76 -6 -96 -17 -101 -56 -3 -27 -4
-27 -89 -30 -73 -2 -90 -6 -105 -23 -25 -28 -26 -114 -1 -152 17 -26 18 -26
110 -21 l92 6 38 -78 c29 -58 36 -79 26 -83 -8 -2 -26 -17 -41 -32 -23 -23
-28 -36 -28 -79 0 -41 5 -56 25 -75 22 -23 32 -25 108 -25 80 0 87 -2 116 -29
17 -16 46 -32 66 -35 33 -7 35 -9 35 -46 0 -30 -9 -51 -34 -85 -90 -118 -99
-245 -27 -389 37 -76 41 -91 41 -158 0 -88 14 -108 76 -108 62 0 84 21 84 81
0 69 25 68 34 -2 7 -55 34 -117 60 -138 12 -10 14 -33 9 -134 -4 -111 -2 -130
21 -212 54 -183 160 -364 314 -534 l72 -80 0 -88 c0 -103 11 -127 69 -144 48
-14 105 2 127 36 l16 24 68 -49 c376 -268 985 -530 1660 -714 209 -57 823
-196 864 -196 3 0 6 -11 6 -25 0 -31 38 -72 74 -81 44 -11 93 4 120 37 l25 30
123 -20 c1067 -172 2360 -231 3473 -159 35 2 40 0 43 -20 2 -13 18 -32 35 -43
66 -39 167 -9 167 50 0 34 -24 29 265 57 974 94 1902 324 2447 606 l77 40 30
-34 c26 -29 35 -33 78 -33 30 0 59 7 76 18 26 17 27 22 27 97 l0 79 81 61
c265 203 427 434 470 676 7 38 22 81 33 96 15 21 21 49 24 115 4 83 7 93 56
181 l51 92 5 -71 c4 -55 9 -74 25 -85 28 -21 60 -27 100 -20 52 10 65 36 65
137 0 77 2 88 21 100 15 10 23 29 27 64 3 27 13 63 24 80 22 37 24 131 3 200
-8 27 -30 72 -50 101 l-37 53 11 108 11 108 59 55 c110 101 164 247 165 447
l1 123 63 0 c63 0 64 0 112 50 47 48 51 50 104 50 53 0 58 2 76 32 27 44 26
84 -2 102 -13 8 -53 17 -89 21 l-65 7 -159 151 c-139 134 -157 155 -150 175 5
19 11 22 28 17 44 -15 109 -17 138 -5 43 18 81 71 158 222 111 215 177 480
256 1028 59 410 58 448 -12 530 -39 45 -80 69 -165 96 -46 14 -58 22 -58 39 0
37 -28 65 -66 65 -20 0 -42 7 -50 15 -9 8 -31 15 -51 15 l-35 0 8 68 c5 55 14
77 46 125 97 142 124 250 112 442 -7 122 -10 132 -35 140 -19 6 -20 12 -14
105 7 91 6 99 -14 119 -16 16 -33 21 -76 21 -83 0 -95 -17 -95 -130 0 -81 -2
-90 -19 -90 -10 0 -30 -9 -43 -20 l-25 -19 -7 60 c-40 350 -323 635 -880 885
l-141 64 -5 57 -5 58 -72 3 c-72 3 -73 3 -73 -23 0 -14 -5 -25 -12 -25 -14 0
-220 72 -216 76 3 2 132 22 1333 199 686 102 708 107 745 167 25 42 25 62 -4
177 -44 167 -93 191 -329 156 -56 -9 -221 -33 -367 -55 -146 -21 -735 -109
-1310 -194 -1153 -172 -1160 -173 -1160 -160 0 5 514 155 1143 333 628 178
1160 332 1182 341 88 38 102 90 55 206 -37 89 -61 121 -107 140 -49 21 -95 16
-238 -26z"/>
</g>
</svg>
