<?xml version="1.0" standalone="no"?>
<!DOCTYPE svg PUBLIC "-//W3C//DTD SVG 20010904//EN"
 "http://www.w3.org/TR/2001/REC-SVG-20010904/DTD/svg10.dtd">
<svg version="1.0" xmlns="http://www.w3.org/2000/svg"
 width="1280.000000pt" height="640.000000pt" viewBox="0 0 1280.000000 640.000000"
 preserveAspectRatio="xMidYMid meet">
<metadata>
Created by potrace 1.15, written by Peter Selinger 2001-2017
</metadata>
<g transform="translate(0.000000,640.000000) scale(0.100000,-0.100000)"
fill="#000000" stroke="none">
<path d="M12425 5324 c-42 -21 -83 -62 -110 -109 -30 -51 -151 -333 -165 -384
-12 -46 -144 -226 -205 -279 -160 -141 -658 -253 -1355 -307 -388 -29 -1491
-71 -2538 -96 -417 -10 -505 -10 -512 1 -7 11 -57 12 -261 7 -270 -6 -336 0
-408 37 -98 49 -137 155 -92 248 23 47 96 111 198 172 53 32 63 42 63 65 0 16
-7 34 -15 41 -15 12 -16 10 -40 -57 -2 -7 -21 -19 -41 -28 -98 -41 -217 -149
-240 -218 -28 -83 -2 -195 60 -260 14 -15 26 -29 26 -31 0 -2 -41 -4 -90 -5
-76 -2 -91 1 -97 15 -3 9 -1 25 5 34 6 10 12 55 13 100 l2 83 -37 19 c-20 11
-60 22 -87 25 l-49 6 2 156 3 156 30 3 c77 7 76 6 73 79 -3 62 -5 68 -28 74
-31 9 -225 9 -265 0 -30 -6 -30 -7 -30 -76 l0 -70 53 -3 52 -3 0 -160 0 -159
-30 0 c-16 0 -54 -9 -85 -21 l-55 -20 0 -89 c0 -49 5 -92 10 -95 6 -3 10 -19
10 -36 l0 -29 -65 0 -65 0 0 33 c0 18 5 38 10 43 6 6 10 44 8 89 l-3 78 -37
19 c-21 11 -59 23 -85 26 l-48 7 -3 149 c-3 161 -1 166 50 166 53 0 58 7 58
80 l0 68 -31 6 c-39 8 -224 6 -263 -3 -28 -6 -28 -7 -28 -76 l0 -70 53 -5 54
-5 0 -154 0 -154 -64 -13 c-103 -21 -111 -30 -111 -124 0 -43 4 -82 10 -85 6
-3 10 -24 10 -46 l0 -39 -86 0 -86 0 7 43 c3 23 9 80 11 127 l5 86 -37 18
c-21 9 -59 20 -86 23 l-48 6 2 156 c3 129 6 156 18 158 8 1 32 4 53 8 l38 6
-3 67 c-3 61 -5 67 -28 73 -31 9 -225 9 -265 0 -30 -6 -30 -7 -30 -76 l0 -70
53 -3 52 -3 0 -158 0 -158 -48 -6 c-27 -3 -65 -14 -85 -23 l-37 -18 0 -87 c0
-48 5 -91 10 -94 6 -3 10 -23 10 -44 l0 -38 -182 -6 c-308 -12 -3344 -8 -3480
3 -78 7 -176 8 -268 2 l-145 -8 -43 37 c-68 59 -120 72 -327 78 l-179 6 -31
53 -30 52 -120 -2 -120 -3 -43 -75 c-81 -143 -108 -287 -78 -421 17 -76 60
-178 97 -230 l20 -29 120 0 119 0 27 49 27 48 151 7 c238 10 294 23 366 83
l33 28 245 1 c135 1 253 2 261 4 8 2 324 2 702 2 l687 -2 -51 -47 c-154 -145
-279 -380 -325 -612 -24 -120 -23 -357 0 -471 23 -108 77 -271 115 -347 118
-233 329 -361 701 -424 69 -11 134 -27 145 -35 37 -23 104 -43 202 -59 109
-18 314 -20 314 -4 0 5 3 8 8 6 12 -8 1004 -9 1045 -1 l37 6 0 -241 c0 -230
-1 -241 -20 -251 -17 -9 -20 -21 -20 -90 0 -95 6 -102 121 -126 112 -24 306
-3 357 38 8 7 12 39 12 90 0 71 -2 80 -20 85 -16 4 -20 14 -20 48 0 38 3 44
30 55 30 12 88 7 122 -11 23 -12 25 -84 3 -93 -12 -4 -15 -24 -15 -91 l0 -86
36 -15 c20 -8 74 -20 119 -26 96 -13 225 0 284 29 l36 18 3 80 c2 64 0 82 -13
91 -12 9 -15 24 -13 56 3 41 4 43 39 46 19 2 47 -2 62 -7 23 -9 27 -16 27 -50
0 -31 -4 -40 -20 -44 -19 -5 -21 -12 -18 -89 l3 -83 36 -18 c63 -30 186 -43
286 -28 49 6 104 20 123 29 l35 17 3 82 c3 74 1 83 -18 93 -19 10 -20 19 -20
245 l0 235 745 0 745 0 0 -50 0 -50 -335 0 -335 0 0 30 c0 28 -3 30 -35 30
-32 0 -35 -2 -35 -30 0 -20 -5 -30 -15 -30 -10 0 -15 10 -15 30 0 28 -3 30
-35 30 l-35 0 0 -85 0 -85 35 0 c33 0 35 2 35 35 0 50 28 48 32 -2 3 -35 6
-38 36 -41 31 -3 32 -2 32 37 l0 41 335 0 335 0 0 -35 0 -35 75 0 75 0 0 35
c0 32 2 35 30 35 28 0 30 -3 30 -35 l0 -35 75 0 75 0 0 35 c0 34 1 35 40 35
33 0 40 3 40 20 0 17 -7 20 -40 20 l-40 0 0 50 0 49 195 3 c107 2 195 0 195
-4 0 -22 383 4 422 28 4 3 19 -7 32 -23 l25 -28 -27 -28 c-32 -33 -26 -47 37
-91 32 -23 44 -27 53 -18 7 7 23 12 37 12 32 0 138 49 197 92 24 17 62 59 84
92 l39 61 114 17 c63 9 147 28 188 41 41 14 77 22 82 18 4 -4 2 -21 -4 -38 -6
-18 -9 -44 -7 -60 3 -26 6 -28 43 -26 22 1 72 4 110 5 91 5 151 37 264 143 94
89 141 156 206 291 98 206 142 365 126 459 l-7 40 -13 -60 c-23 -105 -73 -198
-189 -351 l-54 -70 -46 23 c-25 13 -51 23 -59 23 -17 0 -17 5 8 69 32 86 67
241 85 384 20 162 14 436 -14 600 -16 92 -16 107 -4 107 8 0 69 -9 136 -20
513 -86 909 -206 1093 -331 61 -42 167 -150 209 -214 18 -28 45 -91 60 -145
30 -108 166 -389 215 -444 59 -68 116 -40 213 108 68 102 116 199 150 299 47
142 111 503 136 772 34 364 16 1067 -35 1351 -41 225 -184 484 -267 484 -13 0
-36 -7 -53 -16z m-7365 -2164 c0 -596 0 -610 -19 -610 -11 0 -32 5 -48 11 -44
17 -1321 17 -1393 -1 -116 -27 -191 -83 -244 -179 -27 -50 -60 -177 -50 -193
15 -24 -116 9 -204 53 -96 47 -171 128 -226 241 -60 127 -77 198 -83 358 -11
284 57 544 182 687 59 69 223 172 334 209 l96 33 828 1 827 0 0 -610z m534
604 l46 -7 0 -473 c0 -309 -3 -474 -10 -474 -5 0 -10 -6 -10 -14 0 -24 -30
-46 -61 -46 -20 0 -40 10 -60 29 l-29 29 0 481 0 481 39 0 c21 0 59 -3 85 -6z
m596 -499 c0 -530 2 -513 -68 -502 -66 11 -62 -18 -62 506 l0 476 65 -3 65 -4
0 -473z m980 444 c451 -14 1830 -82 1938 -95 l42 -5 0 -50 c0 -35 4 -51 15
-55 13 -5 15 -67 15 -468 l0 -461 -430 -3 c-305 -3 -430 -1 -430 7 0 6 9 11
20 11 13 0 20 7 20 20 0 13 -7 20 -20 20 -16 0 -20 7 -20 30 0 29 -1 30 -50
30 l-50 0 0 40 c0 38 2 40 31 40 24 0 30 4 27 18 -3 14 -17 17 -96 20 -87 3
-92 2 -92 -18 0 -16 6 -20 30 -20 28 0 30 -2 30 -40 l0 -40 -50 0 c-49 0 -50
-1 -50 -30 l0 -30 -477 0 -477 0 36 38 c141 147 102 396 -74 472 -141 61 -292
-7 -348 -157 -52 -139 10 -302 138 -365 l47 -23 578 -3 c360 -2 577 -6 577
-12 0 -6 -268 -10 -725 -10 l-725 0 0 573 c0 316 3 577 7 580 3 4 58 4 122 2
64 -3 262 -10 441 -16z m2385 -124 c189 -14 457 -37 607 -51 38 -4 73 -12 78
-19 16 -20 57 -219 70 -341 16 -150 8 -426 -15 -524 -9 -41 -37 -117 -61 -167
-54 -112 -148 -219 -227 -257 -59 -29 -172 -60 -191 -53 -7 3 -16 24 -20 47
-10 62 -127 282 -142 267 -2 -2 3 -24 12 -48 17 -49 53 -204 54 -231 0 -16
-12 -18 -109 -18 l-109 0 -6 54 c-14 106 -87 222 -172 272 l-44 26 0 479 0
479 25 0 c23 0 25 3 25 50 0 33 4 50 13 50 6 0 102 -7 212 -15z m-2506 -484
c87 -45 137 -140 129 -244 -6 -72 -23 -109 -70 -156 -44 -44 -92 -64 -154 -63
-191 1 -285 243 -159 408 53 69 174 96 254 55z m-886 -475 l27 -6 0 -243 c0
-176 -3 -246 -12 -255 -16 -16 -80 -15 -101 1 -16 11 -17 36 -15 257 l3 244
25 6 c14 4 30 6 35 4 6 -1 22 -5 38 -8z m-548 -18 c14 -6 25 -20 25 -30 0 -15
-3 -17 -19 -8 -11 5 -49 10 -85 10 -68 0 -82 9 -43 28 30 14 90 15 122 0z
m-1766 -368 c67 0 121 3 121 8 0 5 928 -1 963 -7 4 0 7 -32 7 -70 l0 -69 -144
-7 c-79 -4 -378 -5 -665 -2 -589 5 -571 3 -571 77 0 42 18 67 53 75 44 9 82
11 99 3 9 -4 71 -8 137 -8z m4991 8 c0 -11 242 -10 259 1 7 5 22 6 32 4 15 -4
19 -15 19 -44 l0 -39 -1214 0 c-1089 0 -1215 2 -1227 16 -9 11 -26 14 -58 12
-37 -2 -46 1 -49 15 -2 10 -2 24 1 30 3 9 266 12 1121 12 614 0 1116 -3 1116
-7z m-3200 -83 c0 -82 -1 -85 -19 -75 -11 5 -49 10 -85 10 l-66 0 0 70 0 69
78 4 c42 1 80 4 85 5 4 1 7 -36 7 -83z m4855 -2 c22 -7 31 -17 33 -37 4 -32
-44 -83 -125 -133 l-51 -31 -11 24 c-7 17 -19 24 -39 24 -16 0 -32 3 -35 6 -4
4 23 38 59 76 36 38 70 80 76 93 11 24 11 24 37 6 14 -10 40 -23 56 -28z
m-4327 -209 c22 -6 22 -8 22 -188 0 -163 -2 -184 -20 -213 -15 -25 -27 -33
-49 -33 -63 0 -61 -8 -61 220 0 157 3 210 13 213 17 8 68 8 95 1z m3471 -110
c8 -7 -42 -64 -73 -83 -40 -25 -46 -26 -46 -7 0 20 -39 46 -69 46 -23 0 -71
34 -71 51 0 6 251 0 259 -7z m-3999 -174 c0 -76 -3 -98 -13 -95 -6 3 -17 -5
-22 -17 -14 -33 -85 -38 -114 -9 -18 18 -21 33 -21 116 l0 94 78 4 c42 1 80 4
85 5 4 1 7 -43 7 -98z m2660 50 c0 -49 -1 -50 -30 -50 -29 0 -30 1 -30 50 0
49 1 50 30 50 29 0 30 -1 30 -50z"/>
</g>
</svg>
